# xmcd CD database file
#
# Track frame offsets:
#	182
#	21095
#	43125
#	81045
#	104100
#	132917
#	162787
#	183302
#	211910
#	239450
#
# Disc length: 3594 seconds
#
# Revision: 0
# Processed by: cddbd v1.4PL0 Copyright (c) Steve Scherf et al.
# Submitted via: CDex 1.50beta10
#
DISCID=840e080a
DTITLE=Various Artist - Longly Midnight Jazz -- My First Jazz
DYEAR=1997
DGENRE=Jazz
TTITLE0=My Romance -- Kimiko Itoh
TTITLE1=My Funny Valentine -- Richard Tee
TTITLE2=Good Bless The Child -- Phil Woods, Vincent Herring, Antonio Hart
TTITLE3=Prelude to a Kiss -- Kimito Itoh
TTITLE4=Kenny -- Niels.H.Q.Pedersen
TTITLE5=You are My Everthing -- Essence All Stars,Feat-Wallace Roney
TTITLE6=Smoke Get In your Eyes -- Stephane Grappelli
TTITLE7=Adagio -- Charlie Mariano
TTITLE8=Suave -- Essence All Stars,Feat-Wallace Roney
TTITLE9=If You See Me Looking Blue --  Ralph McDonald
EXTD=YEAR: 1997
EXTT0=
EXTT1=
EXTT2=
EXTT3=
EXTT4=
EXTT5=
EXTT6=
EXTT7=
EXTT8=
EXTT9=
PLAYORDER=
